<svg xmlns="http://www.w3.org/2000/svg" viewBox="0 0 997.78 997.78"><defs><style>.cls-1{fill:#4daec8;}.cls-2{fill:#fff;}</style></defs><title>sun</title><g id="star"><polygon class="cls-1" points="498.89 0 559.49 116.31 653.06 24.42 674.75 153.75 792.13 95.28 772.79 224.99 902.5 205.65 844.03 323.04 973.37 344.73 881.48 438.3 997.78 498.89 881.48 559.49 973.37 653.06 844.03 674.75 902.5 792.13 772.79 772.79 792.13 902.5 674.75 844.03 653.06 973.37 559.49 881.48 498.89 997.78 438.3 881.48 344.73 973.37 323.04 844.03 205.65 902.5 224.99 772.79 95.28 792.13 153.75 674.75 24.42 653.06 116.31 559.49 0 498.89 116.31 438.3 24.42 344.73 153.75 323.04 95.28 205.65 224.99 224.99 205.65 95.28 323.04 153.75 344.73 24.42 438.3 116.31 498.89 0"/></g><g id="ring"><path class="cls-2" d="M512,201a309.93,309.93,0,1,1-121,24.43A309,309,0,0,1,512,201m0-30c-188.33,0-341,152.67-341,341S323.67,853,512,853,853,700.33,853,512,700.33,171,512,171Z" transform="translate(-13.11 -13.11)"/></g></svg>